# xmcd CD database file
#
# Track frame offsets:
#	150
#	27001
#	55972
#	79365
#	113454
#	141549
#	165130
#
# Disc length: 2536 seconds
#
# Revision: 1
# Processed by: cddbd v1.5.2PL0 Copyright (c) Steve Scherf et al.
# Submitted via: CDex 1.51
#
DISCID=5009e607
DTITLE=joerg maria ortwein, sax | jochen daeubler, piano - body and soul (sax and piano) [2006 www.szenerecords.com]
DYEAR=2006
DGENRE=Jazz
TTITLE0=don't get around much anymore (ellington)
TTITLE1=body and soul (green)
TTITLE2=have you met miss jones (rogers/hart)
TTITLE3=polkadots and moonbeams (van husen)
TTITLE4=in a mellow tone (ellington)
TTITLE5=summer samba (valle)
TTITLE6=mercy, mercy, mercy (zawinul)
EXTD=YEAR: 2006
EXTT0=
EXTT1=
EXTT2=
EXTT3=
EXTT4=
EXTT5=
EXTT6=
PLAYORDER=
